<?xml version="1.0" standalone="no"?>
<!DOCTYPE svg PUBLIC "-//W3C//DTD SVG 20010904//EN"
 "http://www.w3.org/TR/2001/REC-SVG-20010904/DTD/svg10.dtd">
<svg version="1.0" xmlns="http://www.w3.org/2000/svg"
 width="2112.000000pt" height="2112.000000pt" viewBox="0 0 2112.000000 2112.000000"
 preserveAspectRatio="xMidYMid meet">
<metadata>
Created by potrace 1.14, written by Peter Selinger 2001-2017
</metadata>
<g transform="translate(0.000000,2112.000000) scale(0.100000,-0.100000)"
fill="#000000" stroke="none">
<path d="M14148 14353 c-20 -21 -44 -53 -53 -72 -9 -19 -39 -56 -65 -82 -30
-30 -51 -60 -53 -78 -3 -17 -17 -45 -31 -64 -14 -19 -26 -39 -26 -45 0 -7 -4
-12 -10 -12 -5 0 -10 -6 -10 -13 0 -8 -11 -19 -24 -26 -33 -18 -38 -56 -15
-113 10 -27 19 -58 19 -69 0 -21 -35 -95 -54 -114 -6 -7 -22 -27 -36 -45 -14
-18 -29 -38 -35 -44 -5 -6 -32 -38 -60 -71 -67 -81 -62 -75 -131 -147 -33 -35
-63 -70 -67 -78 -4 -8 -25 -44 -46 -80 -39 -64 -205 -386 -384 -745 -49 -99
-92 -182 -96 -185 -3 -3 -15 -23 -26 -45 -10 -22 -26 -48 -34 -57 -8 -10 -11
-18 -8 -18 7 0 -50 -112 -94 -185 -16 -27 -37 -65 -46 -82 -9 -18 -20 -33 -25
-33 -4 0 -8 -6 -8 -12 0 -7 -18 -41 -40 -76 -22 -34 -40 -65 -40 -68 0 -3 -15
-29 -33 -57 -75 -116 -87 -137 -87 -144 0 -5 -10 -19 -23 -33 -22 -24 -167
-241 -217 -325 -14 -22 -28 -44 -32 -50 -5 -5 -50 -68 -101 -140 -75 -106
-173 -235 -260 -345 -7 -8 -28 -35 -47 -60 -19 -25 -37 -47 -40 -50 -3 -3 -21
-25 -40 -50 -19 -24 -45 -56 -57 -70 -12 -14 -61 -72 -110 -130 -48 -58 -92
-110 -98 -116 -5 -6 -30 -35 -55 -64 -25 -29 -56 -65 -70 -80 -14 -15 -49 -55
-79 -89 -98 -113 -205 -215 -307 -291 -32 -24 -64 -49 -70 -55 -100 -92 -185
-178 -193 -193 -7 -14 -7 -29 -1 -49 10 -27 12 -28 83 -27 39 1 90 6 112 13
23 6 51 9 64 6 13 -2 42 3 64 11 23 8 53 17 67 20 14 3 43 10 65 16 22 6 45
12 50 14 34 7 105 47 132 72 18 17 43 34 55 37 13 4 44 23 71 41 26 19 51 34
56 34 5 0 11 4 13 9 4 11 228 164 228 155 0 -3 6 -2 13 3 6 6 29 14 51 17 45
9 202 53 231 65 170 75 268 130 355 202 25 20 92 60 149 88 103 51 194 110
261 171 106 96 186 168 212 194 24 22 32 26 38 15 13 -24 36 -213 46 -384 2
-44 7 -100 9 -125 3 -25 7 -83 10 -130 3 -47 8 -116 10 -155 19 -272 27 -458
28 -590 0 -86 -3 -106 -23 -145 -31 -58 -31 -60 -14 -122 19 -72 18 -83 -11
-112 -25 -25 -25 -27 -10 -56 9 -17 15 -50 15 -73 -4 -125 46 -267 113 -322
78 -64 125 -112 170 -172 47 -62 147 -217 147 -229 0 -24 169 -210 240 -264
25 -18 50 -38 55 -44 17 -19 79 -62 100 -70 130 -51 313 -82 360 -62 11 5 26
10 32 12 84 17 197 221 209 378 8 93 -7 146 -62 227 -25 37 -46 81 -49 98 -2
17 -28 66 -58 109 -68 96 -93 145 -113 219 -21 79 -20 76 -27 93 -6 15 -36
116 -37 125 0 3 0 6 -1 8 -15 50 -41 292 -54 517 -3 52 -8 115 -11 140 -3 25
-7 92 -9 150 -2 58 -5 105 -5 105 -1 0 -3 43 -5 95 -3 97 -13 286 -20 375 -3
28 -7 93 -10 145 -7 134 -16 260 -21 284 -11 52 -16 109 -19 216 -1 63 -6 124
-10 135 -54 144 -69 175 -98 205 -67 70 -107 130 -107 163 0 44 2 47 164 248
48 59 179 269 236 379 19 36 38 68 43 71 5 3 8 8 7 10 -1 2 18 45 42 94 24 50
45 93 46 97 6 22 38 85 51 101 8 9 11 17 7 17 -4 0 -2 6 3 13 6 6 33 40 61 75
28 34 57 63 65 63 14 1 27 4 43 9 21 6 53 4 112 -10 128 -30 211 -13 262 53
66 85 186 207 204 207 6 0 31 15 55 33 67 51 140 100 181 121 78 39 126 108
154 217 18 73 20 98 11 154 -4 22 -9 69 -12 105 -9 119 -17 169 -34 213 -11
28 -74 101 -139 161 -67 63 -128 124 -165 167 -37 42 -93 92 -151 134 -42 30
-160 119 -166 125 -28 29 -294 185 -363 213 -20 9 -65 21 -100 27 -68 13 -146
37 -220 69 -66 28 -77 27 -119 -16z"/>
<path d="M5364 14342 c-5 -4 -8 -16 -7 -27 2 -11 5 -42 7 -70 3 -27 8 -81 11
-120 4 -38 8 -197 10 -352 l2 -283 -420 0 c-392 0 -421 1 -445 19 -15 10 -49
31 -77 46 -27 15 -84 47 -126 70 -42 23 -90 48 -108 56 -17 8 -31 17 -31 21 0
5 -4 8 -10 8 -5 0 -40 14 -77 31 -115 53 -337 149 -345 149 -4 0 -5 -17 -3
-37 3 -21 8 -81 10 -133 3 -52 7 -129 10 -170 16 -311 21 -1056 10 -1600 -6
-337 -13 -603 -16 -616 -1 -5 0 -11 1 -14 5 -14 6 -50 0 -50 -7 0 -4 -50 5
-110 10 -59 50 -116 101 -141 26 -12 63 -25 83 -28 69 -10 266 -5 321 9 30 8
57 15 60 15 3 0 19 8 35 17 76 41 120 116 124 213 l1 21 2059 -1 c1133 0 2062
-2 2065 -5 2 -3 7 -19 10 -35 3 -16 15 -42 26 -57 11 -15 20 -31 20 -36 0 -5
28 -22 63 -38 56 -25 73 -28 177 -29 251 -1 364 46 424 175 23 51 25 125 12
490 -13 380 -18 629 -20 1000 l-2 375 22 18 c12 9 25 17 30 17 10 0 94 69 122
100 49 55 52 126 8 184 -29 38 -102 109 -137 133 -13 10 -30 23 -37 30 -8 7
-53 43 -100 80 -48 37 -89 70 -92 73 -3 3 -34 24 -70 47 -162 101 -198 87
-432 -168 -42 -46 -85 -94 -96 -106 l-19 -23 -445 0 -445 0 1 201 1 202 25 15
c125 76 174 123 185 178 12 64 -33 107 -149 145 -37 11 -76 22 -89 23 -12 2
-31 6 -42 9 -11 4 -36 9 -55 11 -19 3 -46 8 -60 11 -14 2 -45 7 -70 10 -25 3
-56 7 -70 10 -14 2 -47 7 -75 10 -27 3 -63 8 -80 10 -16 3 -61 7 -100 10 -38
3 -77 8 -86 11 -23 7 -27 -11 -19 -86 3 -36 6 -84 6 -108 -1 -23 1 -42 4 -42
11 0 19 -610 8 -616 -12 -8 -909 -6 -916 1 -4 3 -7 94 -7 201 l0 195 50 29
c114 65 173 140 161 204 -8 42 -33 62 -121 97 -43 17 -167 47 -230 55 -11 2
-67 10 -125 19 -109 17 -160 23 -220 30 -19 1 -66 6 -105 10 -38 4 -72 9 -75
10 -3 2 -10 1 -16 -3z m20 -1052 c2 -8 3 -188 2 -400 l-1 -385 -447 -1 -448
-1 0 397 c0 218 2 399 4 401 2 2 203 4 445 4 384 0 442 -2 445 -15z m1576 11
c13 -1 15 -51 15 -398 l0 -398 -463 -1 -462 -1 -1 26 c-5 115 -3 767 3 771 5
4 856 5 908 1z m1655 -396 l0 -400 -490 0 -490 0 -1 390 c0 215 3 395 7 400 5
7 179 10 491 10 l483 0 0 -400z m-4022 -588 c8 7 106 8 113 0 3 -3 16 -2 28 3
13 4 29 4 36 0 8 -5 21 -5 30 0 9 5 22 5 30 0 8 -5 21 -5 31 0 9 5 19 7 22 4
7 -8 116 -9 123 -2 3 4 18 2 34 -2 16 -4 31 -6 34 -3 6 7 106 9 106 3 0 -3 16
-5 35 -5 19 0 35 2 35 5 0 4 87 4 100 -1 3 -1 12 -2 20 -3 13 -1 15 -56 16
-431 0 -236 -3 -432 -7 -435 -5 -4 -851 -5 -881 -1 -5 1 -8 197 -8 437 0 361
2 435 13 431 8 -3 20 -1 27 3 7 5 23 4 36 0 12 -5 24 -6 27 -3z m1601 0 c7 7
105 7 112 0 3 -3 16 -2 28 3 13 4 29 4 36 0 8 -5 21 -5 30 0 9 5 22 5 30 0 8
-5 21 -5 31 0 9 5 19 7 22 4 7 -8 116 -9 123 -2 3 4 18 2 34 -2 16 -4 31 -6
34 -3 7 8 105 7 112 0 3 -3 19 -1 35 3 16 5 31 5 34 0 3 -5 19 -5 35 0 16 5
32 5 35 0 3 -4 14 -6 25 -3 11 3 21 1 21 -3 1 -5 2 -201 3 -436 1 -375 -1
-428 -14 -429 -8 0 -215 -2 -459 -2 -408 -2 -444 -1 -450 15 -4 13 -6 808 -2
851 1 5 17 7 35 6 19 -2 38 -1 41 3 4 3 19 2 35 -2 16 -4 31 -6 34 -3z m1600
0 c7 7 105 7 112 0 3 -3 16 -2 28 3 13 4 29 4 36 0 8 -5 21 -5 30 0 9 5 22 5
30 0 8 -5 21 -5 31 0 9 5 19 7 22 4 7 -8 116 -9 123 -2 3 4 18 2 34 -2 16 -4
31 -6 34 -3 7 8 105 7 112 0 3 -3 19 -1 35 3 17 5 31 5 35 -1 3 -5 10 -7 15
-3 14 8 124 8 137 0 17 -10 16 -863 -1 -868 -10 -3 -911 -2 -957 1 -13 1 -15
54 -15 434 l0 432 43 1 c23 0 45 3 48 6 3 4 18 2 34 -2 16 -4 31 -6 34 -3z"/>
<path d="M714 12907 c0 -111 -3 -222 -6 -247 l-5 -45 -289 -2 c-159 -1 -308 2
-331 7 -40 7 -43 6 -39 -14 8 -41 18 -57 30 -48 6 5 150 10 319 11 l308 3 -6
-44 c-11 -82 -35 -203 -51 -258 -17 -61 -83 -222 -94 -230 -4 -3 -10 -15 -14
-27 -4 -13 -12 -23 -17 -23 -5 0 -9 -5 -9 -12 0 -16 -97 -143 -154 -200 -25
-26 -46 -46 -46 -44 0 1 -17 -14 -39 -34 -21 -20 -74 -60 -117 -89 -44 -28
-83 -55 -89 -59 -5 -4 -18 -11 -27 -15 -21 -8 -24 -27 -4 -27 14 0 69 16 101
30 11 5 45 19 75 31 110 45 254 143 345 234 55 55 175 212 175 228 0 6 6 18
13 26 14 16 76 162 82 191 2 8 10 42 18 75 9 33 19 84 23 113 7 57 24 71 24
20 1 -18 14 -82 30 -143 33 -120 32 -117 48 -158 7 -16 12 -30 12 -33 0 -17
71 -152 115 -220 87 -134 302 -333 408 -377 32 -14 37 -14 51 2 9 10 16 23 16
30 0 30 43 89 84 116 25 17 46 32 46 35 0 4 -17 12 -37 19 -97 34 -201 86
-297 148 -88 57 -228 197 -289 290 -73 110 -149 286 -164 381 l-4 22 376 0
c410 0 403 -1 348 57 -16 16 -54 50 -87 76 -44 36 -64 46 -80 41 -11 -4 -21
-7 -21 -8 -1 0 -23 -29 -50 -63 l-50 -63 -228 0 -227 0 6 128 c4 70 7 154 7
187 0 57 2 61 31 76 56 28 29 71 -52 85 -15 3 -51 9 -81 14 -94 17 -86 35 -87
-193z"/>
<path d="M19080 12437 c-19 -7 -39 -14 -45 -15 -5 -2 -26 -7 -45 -12 -19 -5
-60 -12 -90 -15 -30 -3 -68 -8 -85 -11 -16 -4 -36 -7 -42 -7 -7 0 -13 -4 -13
-9 0 -4 -6 -8 -14 -8 -8 0 -54 -13 -103 -29 -78 -25 -254 -72 -323 -85 -14 -3
-36 -7 -49 -10 -14 -3 -68 -14 -120 -25 -92 -19 -120 -25 -186 -36 -16 -3 -43
-8 -60 -12 -16 -4 -41 -7 -55 -8 -14 -2 -26 -4 -27 -5 -2 -1 -11 -3 -20 -4
-10 -2 -40 -6 -68 -11 -27 -4 -61 -9 -75 -11 -14 -1 -27 -3 -30 -4 -3 -1 -9
-2 -13 -1 -4 1 -36 -3 -70 -8 -34 -6 -91 -13 -127 -16 -76 -8 -112 -12 -160
-20 -19 -3 -60 -7 -90 -10 -30 -3 -66 -7 -80 -10 -14 -2 -45 -7 -70 -10 -75
-10 -244 -37 -305 -49 -11 -2 -40 -7 -65 -11 -25 -4 -54 -9 -65 -12 -11 -3
-29 -6 -40 -7 -23 -3 -101 -16 -130 -23 -11 -2 -31 -6 -45 -9 -14 -2 -36 -7
-50 -10 -14 -3 -50 -8 -80 -10 -84 -8 -99 -11 -154 -38 -52 -26 -194 -71 -253
-81 -18 -3 -48 -8 -65 -11 -57 -11 -230 -6 -262 7 -17 7 -43 26 -58 41 -34 37
-54 35 -92 -6 l-32 -34 -58 29 c-59 29 -91 35 -114 21 -18 -12 -6 -40 36 -84
39 -41 37 -58 -3 -40 -39 18 -48 15 -99 -31 l-47 -44 76 -151 c41 -83 75 -154
75 -157 0 -3 -13 -5 -30 -5 -16 0 -30 -4 -30 -8 0 -4 29 -36 65 -71 49 -48 62
-67 55 -77 -8 -9 -5 -17 10 -32 11 -11 30 -44 41 -73 11 -30 33 -70 47 -89 15
-19 40 -55 56 -80 16 -25 34 -48 40 -52 6 -4 8 -8 5 -8 -4 0 19 -27 51 -60 32
-33 56 -60 53 -60 -2 0 6 -10 19 -23 13 -13 39 -42 58 -66 37 -45 91 -83 125
-89 11 -1 37 -20 57 -42 20 -21 56 -49 80 -61 24 -12 57 -32 73 -44 40 -29 89
-42 152 -40 46 1 67 10 190 85 76 46 149 89 163 96 23 11 84 19 225 29 28 2
66 7 85 10 19 4 40 8 45 9 20 3 120 56 140 74 19 16 49 59 91 129 48 80 142
129 364 193 154 43 176 49 205 56 17 3 62 15 100 26 39 12 79 22 90 23 54 5
200 60 256 97 59 38 207 101 371 158 57 20 81 36 153 106 47 45 90 95 96 112
6 17 27 43 47 58 143 110 299 308 465 591 52 90 65 119 64 152 -1 25 6 47 16
59 17 19 17 20 -5 26 -39 10 -161 6 -198 -7z"/>
<path d="M807 11270 l4 -100 -242 0 c-219 0 -243 2 -267 19 -25 17 -118 68
-152 82 -14 6 -16 -33 -16 -370 0 -410 -8 -597 -29 -731 -2 -14 -7 -43 -10
-65 -4 -22 -16 -74 -27 -115 -11 -41 -21 -79 -22 -85 -12 -47 -20 -72 -27 -80
-12 -16 -15 -60 -4 -64 5 -2 14 5 20 15 5 11 13 21 16 24 12 10 77 116 108
178 33 65 86 214 95 267 3 17 8 48 11 70 4 22 8 47 10 55 3 8 7 44 10 80 3 36
7 90 10 120 6 64 15 345 15 472 l0 87 583 0 c320 0 621 0 670 1 121 0 117 20
-21 115 -61 41 -81 40 -121 -8 -59 -70 -47 -67 -253 -67 -103 0 -188 3 -189 8
-6 54 -6 72 0 72 13 0 61 45 61 57 0 21 -44 36 -140 48 -8 1 -34 5 -56 9 l-41
7 4 -101z"/>
<path d="M9351 11143 c-19 -8 -46 -24 -59 -36 -68 -62 -175 -172 -241 -247
-40 -47 -93 -107 -117 -134 -24 -28 -44 -53 -44 -57 0 -7 -5362 -4 -5430 4
-25 2 -72 8 -105 11 -33 4 -71 9 -85 11 -14 3 -43 7 -65 11 -75 10 -98 15
-107 20 -14 9 -4 -38 31 -156 18 -58 35 -113 37 -123 6 -18 20 -18 114 -2 14
2 52 7 85 10 33 3 74 8 90 11 17 2 125 6 241 9 116 2 215 5 220 6 5 1 14 0 19
-1 13 -2 447 -2 460 0 6 1 15 1 20 0 14 -2 128 -3 140 0 6 1 15 1 20 0 13 -2
447 -2 460 0 6 1 15 1 20 0 14 -2 128 -3 140 0 6 1 15 1 20 0 13 -2 447 -2
460 0 6 1 15 1 20 0 14 -2 128 -3 140 0 6 1 15 1 20 0 13 -2 447 -2 460 0 6 1
15 1 20 0 14 -2 128 -3 140 0 6 1 15 1 20 0 13 -2 447 -2 460 0 6 1 15 1 20 0
14 -2 128 -3 140 0 6 1 15 1 20 0 13 -2 447 -2 460 0 6 1 15 1 20 0 14 -2 128
-3 140 0 6 1 15 1 20 0 13 -2 447 -2 460 0 6 1 15 1 20 0 14 -2 128 -3 140 0
6 1 15 1 20 0 13 -2 447 -2 460 0 6 1 15 1 20 0 14 -2 128 -3 140 0 6 1 15 1
20 0 13 -2 447 -2 460 0 6 1 15 1 20 0 14 -2 128 -3 140 0 6 1 15 1 20 0 19
-4 350 0 370 4 11 2 25 5 31 5 13 1 23 22 30 59 11 58 -93 168 -336 354 -52
40 -104 80 -114 90 -11 10 -23 18 -27 18 -4 0 -14 6 -21 13 -24 24 -139 98
-175 114 -52 21 -64 22 -102 6z"/>
<path d="M617 11017 l5 -73 -114 2 c-62 1 -120 4 -128 6 -10 2 -14 -3 -12 -17
5 -36 11 -45 26 -39 8 3 62 7 120 7 l106 2 -1 -110 c0 -128 6 -139 80 -130 49
6 71 19 71 44 0 16 16 17 155 17 l154 0 10 -26 c8 -23 15 -27 58 -29 79 -3 89
13 87 132 l-2 97 27 1 c14 0 89 0 166 1 77 0 145 4 152 10 15 12 -5 37 -69 84
-56 42 -74 39 -117 -15 -29 -37 -32 -38 -93 -37 l-63 1 -3 32 c-2 24 2 34 17
43 23 12 29 50 9 51 -7 0 -22 2 -33 5 -11 2 -51 7 -88 10 -63 5 -68 4 -63 -13
8 -25 10 -108 3 -119 -3 -5 -72 -9 -154 -9 l-148 0 -3 32 c-2 24 2 34 17 43
20 10 30 49 14 51 -8 1 -27 3 -129 13 l-62 6 5 -73z m453 -116 c10 -1 14 -11
13 -33 -1 -18 -2 -35 -3 -38 -1 -3 -1 -17 0 -32 l2 -28 -156 0 -156 0 0 63 c0
35 2 66 4 68 4 4 251 4 296 0z"/>
<path d="M1437 10659 l-52 -51 -496 -1 c-273 0 -513 3 -533 7 -36 7 -37 7 -30
-21 10 -41 11 -42 46 -34 18 4 132 7 253 7 l220 -1 1 -62 c1 -49 -3 -64 -15
-67 -9 -3 -65 -5 -125 -5 -94 1 -115 4 -152 24 -24 13 -44 20 -44 17 0 -4 -4
-2 -8 3 -4 6 -25 18 -48 26 l-40 16 1 -279 c1 -186 5 -282 12 -289 13 -13 66
-16 105 -6 18 5 30 16 34 32 3 14 11 26 18 27 6 0 167 2 357 2 l346 2 17 -29
c15 -28 20 -29 67 -25 86 9 89 17 83 212 l-4 167 26 23 c21 17 26 28 20 47 -8
30 -107 109 -136 109 -11 0 -37 -18 -57 -40 l-37 -40 -132 0 -131 0 0 65 c0
37 5 66 11 68 6 2 152 3 323 3 335 -1 348 1 300 47 -54 53 -113 97 -130 97 -9
0 -41 -23 -70 -51z m-590 -339 c0 -38 -3 -71 -6 -71 -3 -1 -65 -2 -137 -3
l-131 -1 2 70 c1 39 3 71 4 73 0 1 61 2 134 2 l134 0 0 -70z m445 43 c2 -16 2
-48 0 -73 l-4 -45 -131 2 c-73 0 -138 2 -144 2 -9 1 -13 22 -12 71 l1 70 143
0 144 0 3 -27z m-451 -162 c4 -1 6 -34 5 -73 l-1 -73 -136 -3 -136 -3 2 78 c2
43 3 78 4 78 4 1 257 -3 262 -4z m443 -1 c4 -5 9 -84 7 -127 -1 -23 -3 -23
-145 -23 l-144 0 0 72 c0 40 1 75 3 78 4 6 272 6 279 0z"/>
<path d="M4138 10277 c-4 -10 -2 -112 2 -112 1 0 4 -61 7 -135 13 -287 5
-1313 -10 -1337 -4 -6 -4 -13 0 -17 10 -9 10 -56 0 -56 -4 0 -5 -5 -1 -11 4
-7 9 -32 10 -56 2 -24 13 -61 23 -82 36 -69 99 -93 251 -96 306 -4 437 66 456
245 3 25 7 50 8 55 2 7 571 10 1682 10 l1679 -1 6 -59 c10 -99 41 -142 127
-175 42 -16 71 -19 193 -16 177 4 238 16 304 60 37 25 49 39 77 91 25 45 24
25 15 608 l-5 317 46 32 c68 47 132 112 133 137 3 41 2 46 -6 76 -8 31 -73
116 -112 148 -13 10 -35 30 -50 45 -16 15 -53 47 -83 72 -30 25 -57 47 -60 50
-3 4 -23 19 -45 36 -22 16 -48 36 -57 45 -28 24 -99 57 -139 63 -62 9 -133
-40 -307 -214 l-93 -94 -1607 0 c-1538 -1 -1608 0 -1642 17 -19 10 -55 30 -80
44 -63 35 -357 183 -364 183 -4 0 -28 9 -54 21 -52 23 -59 26 -147 59 -33 12
-81 30 -107 40 -33 13 -48 15 -50 7z m4102 -556 c3 -1 5 -192 6 -426 0 -376
-2 -425 -16 -426 -8 -1 -765 -2 -1682 -3 l-1668 -1 -1 40 c0 22 0 76 1 120 1
44 1 89 1 100 0 11 0 94 0 185 0 91 0 170 0 175 0 6 -1 48 -1 95 -1 47 -1 99
-1 115 l1 30 1677 -2 c923 0 1680 -1 1683 -2z"/>
<path d="M18549 10052 c-46 -70 -97 -141 -112 -159 -24 -27 -76 -51 -99 -45
-4 1 -14 -11 -23 -27 -13 -27 -48 -48 -67 -43 -5 1 -8 -3 -8 -9 0 -5 -4 -8 -8
-5 -4 3 -26 1 -48 -4 -21 -5 -55 -12 -74 -15 -19 -3 -53 -11 -75 -16 -41 -11
-55 -14 -115 -25 -50 -9 -104 -20 -150 -29 -14 -2 -74 -14 -135 -25 -60 -12
-143 -28 -182 -36 -40 -8 -76 -14 -80 -13 -5 1 -10 0 -13 -1 -7 -2 -29 -7 -70
-14 -19 -3 -46 -8 -60 -11 -14 -3 -54 -10 -90 -16 -36 -5 -78 -12 -95 -15 -16
-3 -43 -7 -60 -10 -16 -2 -41 -6 -55 -9 -14 -3 -43 -8 -65 -11 -22 -3 -74 -13
-115 -21 -41 -8 -84 -16 -95 -17 -11 -2 -29 -6 -40 -9 -11 -3 -35 -9 -52 -12
-48 -8 -85 -14 -113 -20 -14 -3 -38 -7 -55 -10 -16 -3 -52 -10 -80 -15 -27 -5
-66 -12 -85 -15 -46 -8 -83 -14 -122 -21 -18 -3 -49 -7 -68 -9 -19 -2 -46 -6
-60 -9 -14 -2 -47 -7 -75 -10 -27 -4 -68 -9 -90 -11 -22 -3 -62 -8 -90 -11
-105 -13 -498 -11 -554 2 -31 8 -57 14 -58 14 -2 0 -4 0 -5 1 -9 2 -47 9 -73
13 -16 2 -37 7 -45 9 -37 13 -70 17 -70 9 0 -5 16 -24 35 -43 40 -39 44 -53
13 -43 -13 4 -35 8 -49 9 -15 1 -32 6 -39 10 -8 5 2 -18 20 -51 19 -32 38 -61
42 -62 5 -2 4 -10 -2 -17 -9 -10 -20 -9 -59 6 l-49 18 -10 -27 c-14 -41 3 -69
103 -174 50 -53 103 -110 119 -129 16 -19 49 -56 73 -83 24 -26 52 -68 62 -92
14 -30 67 -91 167 -190 139 -138 234 -214 269 -214 8 0 15 -4 15 -9 0 -4 28
-19 63 -31 69 -25 142 -71 157 -99 5 -11 24 -28 42 -39 38 -23 68 -30 228 -47
19 -2 35 -4 35 -5 0 -1 9 -3 20 -6 46 -9 85 -6 109 9 13 9 38 19 54 22 70 12
104 34 198 126 63 62 88 129 87 237 0 39 4 72 8 72 5 0 9 7 9 15 0 8 5 15 10
15 6 0 10 5 10 11 0 17 61 101 100 138 68 64 286 149 475 185 120 23 177 31
275 41 36 4 76 8 90 10 14 2 63 7 110 11 47 3 101 8 120 9 280 24 549 24 650
1 14 -3 45 -8 70 -10 25 -2 59 -7 75 -10 71 -12 162 -27 185 -30 14 -2 41 -6
60 -9 163 -29 329 -38 405 -23 22 4 74 10 115 12 41 2 86 7 100 11 14 4 36 8
50 9 14 1 27 3 30 4 14 5 70 4 70 -2 0 -10 74 15 93 33 10 9 19 25 22 37 6 32
30 74 65 112 54 59 61 75 66 155 3 42 9 88 14 101 11 27 2 39 -60 77 -19 12
-53 50 -75 83 -30 47 -57 72 -109 105 -38 24 -103 70 -144 102 -101 80 -153
97 -353 112 -36 3 -76 8 -90 10 -13 3 -46 8 -74 11 -94 11 -194 33 -224 48
-29 15 -67 59 -89 102 -13 26 -20 63 -23 126 -2 26 -8 49 -14 52 -6 2 -49 -53
-96 -122z"/>
<path d="M642 9950 c-18 -16 -37 -30 -43 -30 -5 0 -9 -3 -9 -7 0 -5 -10 -13
-23 -19 -12 -7 -61 -32 -108 -57 -48 -25 -89 -43 -93 -40 -3 4 -6 1 -6 -5 0
-7 -8 -12 -18 -12 -10 0 -22 -3 -26 -7 -4 -5 -11 -8 -14 -9 -36 -5 -102 -31
-107 -42 -6 -17 110 -11 257 14 21 3 40 6 43 5 2 0 23 6 45 14 22 8 40 12 40
10 0 -2 30 8 68 22 96 35 124 43 134 37 5 -3 22 -3 38 1 34 7 39 31 13 51 -24
19 -152 104 -155 104 -2 0 -18 -13 -36 -30z"/>
<path d="M1030 9941 c0 -5 10 -13 22 -17 87 -27 225 -106 315 -180 67 -54 103
-63 146 -35 17 11 29 21 25 21 -4 0 -3 11 2 25 14 36 -9 87 -51 113 -33 20
-135 50 -194 58 -154 19 -265 25 -265 15z"/>
<path d="M7349 8654 c0 -5 -2 -16 -4 -24 -2 -8 -6 -32 -10 -54 -4 -21 -9 -48
-11 -60 -3 -11 -7 -39 -10 -61 -4 -22 -10 -48 -15 -57 -6 -10 -8 -18 -5 -18 3
0 -16 -93 -38 -180 -28 -110 -39 -151 -51 -182 -8 -21 -13 -38 -10 -38 2 0 -3
-16 -11 -35 -8 -19 -11 -35 -8 -35 4 0 2 -6 -4 -13 -6 -7 -13 -24 -15 -37 -6
-31 -73 -219 -87 -242 -5 -10 -10 -22 -10 -28 0 -6 -9 -29 -20 -53 l-20 -42
-614 0 c-338 0 -614 0 -613 1 1 1 27 12 57 25 68 29 70 31 142 102 32 32 56
63 53 68 -4 5 -2 9 3 9 5 0 17 28 27 63 19 68 22 186 6 230 -6 15 -8 27 -6 27
9 0 -44 110 -74 153 -42 61 -129 143 -216 203 -68 47 -292 164 -313 164 -5 0
-31 10 -58 22 -27 12 -53 23 -59 24 -5 1 -39 12 -75 24 -36 12 -69 23 -75 24
-5 1 -14 4 -20 7 -5 3 -16 4 -22 3 -7 -1 -17 -2 -23 -3 -19 -2 -10 -32 25 -86
19 -30 31 -55 27 -55 -4 0 -2 -4 4 -8 32 -21 125 -268 138 -367 2 -11 6 -33
10 -50 10 -47 16 -77 22 -115 5 -35 6 -42 19 -115 13 -80 38 -171 58 -215 24
-54 84 -120 109 -120 10 0 18 -4 18 -8 0 -10 -1977 -8 -2095 3 -49 4 -106 9
-125 11 -19 2 -60 5 -90 8 -30 3 -71 7 -90 10 -19 2 -62 8 -95 11 -33 4 -63 9
-67 11 -19 12 -13 -25 26 -152 24 -76 47 -138 53 -137 5 1 45 5 89 8 81 6 101
8 239 21 44 5 1579 10 3410 11 2431 2 3337 6 3358 14 32 13 48 60 35 100 -10
30 -76 100 -162 174 -33 28 -64 55 -70 60 -12 11 -237 186 -351 273 -66 50
-156 108 -163 104 -2 -2 -8 2 -13 9 -4 7 -27 12 -52 12 -48 0 -77 -17 -161
-93 -51 -46 -175 -176 -247 -258 -51 -58 -124 -143 -153 -177 l-26 -30 -770
-1 c-423 0 -767 3 -763 7 5 4 43 35 86 69 136 107 209 173 404 367 146 145
154 150 238 158 11 1 27 4 35 7 8 3 36 13 63 23 26 9 47 20 47 25 0 5 8 11 19
15 11 3 23 21 28 44 13 49 -5 106 -44 137 -31 25 -183 107 -183 98 0 -3 -12 2
-27 10 -32 17 -86 37 -193 73 -41 13 -82 27 -90 30 -8 4 -17 7 -20 8 -24 7
-276 88 -287 92 -7 3 -13 1 -14 -3z"/>
<path d="M20225 8370 c-93 -17 -226 -71 -267 -108 -10 -8 -18 -12 -18 -9 0 21
-165 -143 -209 -206 -51 -75 -98 -178 -123 -269 -19 -68 -23 -109 -23 -223 0
-89 6 -160 15 -195 8 -30 14 -57 15 -60 2 -16 42 -110 59 -140 10 -19 24 -44
30 -55 25 -45 107 -144 156 -185 99 -85 237 -156 345 -176 52 -10 240 -10 285
-1 99 21 243 86 305 138 48 41 130 121 144 142 9 14 32 49 52 79 40 59 91 183
110 268 22 94 15 361 -11 409 -5 10 -10 28 -12 42 -2 13 -18 55 -36 93 -102
217 -270 368 -487 436 -75 23 -253 34 -330 20z m210 -54 c79 -10 185 -42 197
-60 4 -6 8 -7 8 -3 0 4 17 -4 37 -18 21 -14 41 -25 45 -25 5 0 16 -8 26 -17
10 -10 40 -36 65 -58 26 -22 47 -42 47 -46 0 -3 -109 -6 -242 -6 l-243 0 1 76
c1 92 -2 101 -32 101 -23 0 -23 -2 -23 -77 1 -43 1 -83 0 -89 -1 -11 -464 -15
-475 -3 -12 11 86 91 186 152 37 23 167 66 219 72 24 3 44 7 45 8 4 3 88 -1
139 -7z m-119 -323 c0 -18 2 -35 5 -37 3 -3 3 -21 1 -40 -4 -37 -22 -48 -58
-35 -11 4 -27 4 -34 -1 -7 -5 -23 -4 -36 0 -12 5 -24 7 -26 5 -2 -3 -30 -7
-61 -10 -65 -5 -121 -31 -157 -71 -47 -53 -53 -84 -55 -278 -1 -99 -3 -186 -4
-192 -3 -29 -70 -85 -123 -103 l-56 -19 -18 41 c-10 23 -18 44 -19 47 -66 231
-46 455 57 640 52 93 25 86 320 85 l263 0 1 -32z m631 -22 c20 -30 36 -60 37
-65 1 -6 7 -20 13 -31 13 -23 43 -118 49 -155 47 -268 -11 -490 -180 -694 -38
-45 -131 -123 -166 -139 -8 -4 -28 -16 -45 -26 -16 -11 -37 -20 -45 -20 -19
-1 -180 167 -180 188 0 5 10 12 23 15 49 13 97 85 91 136 -1 14 -3 32 -3 41
-1 22 -50 78 -84 95 -31 17 -132 22 -187 11 -89 -19 -144 -134 -101 -211 26
-48 69 -83 94 -78 23 5 -2 -32 -68 -102 -41 -43 -76 -83 -78 -89 -4 -13 -78 6
-99 26 -7 6 -26 19 -42 27 -67 35 -247 235 -232 259 3 4 26 14 51 21 58 16
130 79 146 128 8 23 13 104 14 217 1 106 6 191 13 207 14 34 75 74 127 84 22
4 182 8 355 9 173 1 318 3 323 4 4 0 7 10 7 20 0 19 -26 37 -45 31 -12 -3
-109 -1 -153 3 -18 2 -35 0 -37 -3 -2 -4 -25 -4 -49 0 -25 4 -50 3 -57 0 -6
-4 -23 -5 -37 -1 -23 6 -25 12 -25 56 2 102 -33 91 269 90 l266 0 35 -54z
m-626 -716 c10 -37 0 -45 -59 -45 l-55 0 24 26 c41 45 80 53 90 19z m117 6
c21 -11 47 -40 41 -46 -2 -2 -23 -5 -47 -8 -43 -4 -61 9 -56 41 1 6 2 16 3 21
1 11 31 7 59 -8z m-121 -117 c-3 -4 -2 -14 3 -23 23 -43 -35 -50 -79 -10 -32
30 -26 39 31 39 28 0 48 -3 45 -6z m163 -2 c0 -15 -44 -50 -71 -57 -25 -6 -27
-4 -31 29 l-4 36 53 0 c29 0 53 -4 53 -8z m-77 -180 c23 -25 61 -65 85 -89 40
-41 51 -62 35 -64 -5 0 -15 -2 -23 -4 -87 -22 -204 -23 -300 -3 -38 8 -34 20
32 90 38 40 79 85 91 100 25 31 25 31 80 -30z"/>
<path d="M20243 7728 c-5 -7 -9 -25 -8 -40 l1 -28 -88 0 c-70 0 -90 -3 -94
-15 -12 -31 13 -41 96 -40 44 0 80 -2 81 -5 8 -57 32 -87 79 -100 65 -18 120
1 144 48 7 15 11 33 9 40 -5 13 -6 13 92 16 83 2 99 9 85 37 -9 16 -22 19 -95
19 l-84 0 1 29 c1 34 -8 51 -27 51 -18 0 -28 -17 -29 -49 -1 -25 -4 -26 -58
-29 l-58 -3 0 41 c0 32 -3 40 -19 40 -10 0 -23 -6 -28 -12z m167 -134 c0 -19
-29 -44 -50 -44 -52 0 -97 43 -53 52 46 8 103 4 103 -8z"/>
<path d="M20047 7442 c-18 -4 -21 -11 -11 -36 5 -14 42 -16 314 -16 278 0 308
2 314 17 14 35 -9 38 -307 38 -161 0 -300 -1 -310 -3z"/>
</g>
</svg>
