<?xml version="1.0" encoding="UTF-8" standalone="no"?><svg xmlns="http://www.w3.org/2000/svg" xmlns:xlink="http://www.w3.org/1999/xlink" fill="none" height="252.3" preserveAspectRatio="xMidYMid meet" version="1" viewBox="1.7 0.3 684.0 252.3" width="684" zoomAndPan="magnify"><g><g id="change1_1"><path d="M9.16498 141.601C9.16498 80.297 58.8614 30.6006 120.165 30.6006H567.165C628.469 30.6006 678.165 80.297 678.165 141.601V141.601C678.165 202.904 628.469 252.601 567.165 252.601H120.165C58.8614 252.601 9.16498 202.904 9.16498 141.601V141.601Z" fill="#a2a5b2"/></g><g id="change2_1"><path d="M9.16498 118.77C9.16498 57.4659 58.8614 7.76953 120.165 7.76953H567.165C628.469 7.76953 678.165 57.4659 678.165 118.77V118.77C678.165 180.073 628.469 229.77 567.165 229.77H120.165C58.8614 229.77 9.16498 180.073 9.16498 118.77V118.77Z" fill="#c5eef1"/></g><g id="change3_1"><path clip-rule="evenodd" d="M1.66498 118.77C1.66498 53.3238 54.7192 0.269531 120.165 0.269531H166.706C170.848 0.269531 174.206 3.62739 174.206 7.76953C174.206 11.9117 170.848 15.2695 166.706 15.2695H120.165C63.0035 15.2695 16.665 61.6081 16.665 118.77C16.665 175.931 63.0035 222.27 120.165 222.27H528.074C532.216 222.27 535.574 225.627 535.574 229.77C535.574 233.912 532.216 237.27 528.074 237.27H120.165C54.7192 237.27 1.66498 184.215 1.66498 118.77ZM282.061 7.76953C282.061 3.62739 285.419 0.269531 289.561 0.269531H567.165C632.611 0.269531 685.665 53.3238 685.665 118.77C685.665 171.204 651.614 215.666 604.44 231.286C600.508 232.588 596.264 230.456 594.962 226.524C593.66 222.592 595.792 218.348 599.725 217.046C640.943 203.398 670.665 164.545 670.665 118.77C670.665 61.6081 624.326 15.2695 567.165 15.2695H289.561C285.419 15.2695 282.061 11.9117 282.061 7.76953ZM199.798 9.26953C199.798 5.12739 203.155 1.76953 207.298 1.76953H232.779C236.921 1.76953 240.279 5.12739 240.279 9.26953C240.279 13.4117 236.921 16.7695 232.779 16.7695H207.298C203.155 16.7695 199.798 13.4117 199.798 9.26953ZM543.262 229.77C543.262 225.627 546.619 222.27 550.762 222.27H567.165C571.307 222.27 574.665 225.627 574.665 229.77C574.665 233.912 571.307 237.27 567.165 237.27H550.762C546.619 237.27 543.262 233.912 543.262 229.77Z" fill="#007580" fill-rule="evenodd"/></g></g></svg>